<?xml version="1.0" encoding="UTF-8"?>
<svg width="32" height="32" viewBox="0 0 32 32" fill="none" xmlns="http://www.w3.org/2000/svg">
    <rect width="32" height="32" rx="8" fill="#1E1E1E"/>
    <path d="M16 8C10.477 8 6 12.477 6 18C6 23.523 10.477 28 16 28C21.523 28 26 23.523 26 18C26 12.477 21.523 8 16 8ZM20.5 14C21.328 14 22 14.672 22 15.5C22 16.328 21.328 17 20.5 17C19.672 17 19 16.328 19 15.5C19 14.672 19.672 14 20.5 14ZM11.5 14C12.328 14 13 14.672 13 15.5C13 16.328 12.328 17 11.5 17C10.672 17 10 16.328 10 15.5C10 14.672 10.672 14 11.5 14ZM16 24C13.663 24 11.602 22.764 10.333 20.868L11.667 19.132C12.647 20.636 14.207 21.6 16 21.6C17.793 21.6 19.353 20.636 20.333 19.132L21.667 20.868C20.398 22.764 18.337 24 16 24Z" fill="#14F195"/>
</svg>
